P3
18 18 255
192 0 0
245 0 0
72 0 0
151 0 0
253 0 0
104 0 0
129 0 0
255 0 0
131 0 0
102 0 0
252 0 0
152 0 0
70 0 0
245 0 0
193 0 0
36 0 0
232 0 0
215 0 0
192 0 0
245 0 0
72 0 0
151 0 0
253 0 0
104 0 0
129 0 0
255 0 0
131 0 0
102 0 0
252 0 0
152 0 0
70 0 0
245 0 0
193 0 0
36 0 0
232 0 0
215 0 0
192 0 0
245 0 0
72 0 0
151 0 0
253 0 0
104 0 0
129 0 0
255 0 0
131 0 0
102 0 0
252 0 0
152 0 0
70 0 0
245 0 0
193 0 0
36 0 0
232 0 0
215 0 0
192 0 0
245 0 0
72 0 0
151 0 0
253 0 0
104 0 0
129 0 0
255 0 0
131 0 0
102 0 0
252 0 0
152 0 0
70 0 0
245 0 0
193 0 0
36 0 0
232 0 0
215 0 0
192 0 0
245 0 0
72 0 0
151 0 0
253 0 0
104 0 0
129 0 0
255 0 0
131 0 0
102 0 0
252 0 0
152 0 0
70 0 0
245 0 0
193 0 0
36 0 0
232 0 0
215 0 0
192 0 0
245 0 0
72 0 0
151 0 0
253 0 0
104 0 0
129 0 0
255 0 0
131 0 0
102 0 0
252 0 0
152 0 0
70 0 0
245 0 0
193 0 0
36 0 0
232 0 0
215 0 0
192 0 0
245 0 0
72 0 0
151 0 0
253 0 0
104 0 0
129 0 0
255 0 0
131 0 0
102 0 0
252 0 0
152 0 0
70 0 0
245 0 0
193 0 0
36 0 0
232 0 0
215 0 0
192 0 0
245 0 0
72 0 0
151 0 0
253 0 0
104 0 0
129 0 0
255 0 0
131 0 0
102 0 0
252 0 0
152 0 0
70 0 0
245 0 0
193 0 0
36 0 0
232 0 0
215 0 0
192 0 0
245 0 0
72 0 0
151 0 0
253 0 0
104 0 0
129 0 0
255 0 0
131 0 0
102 0 0
252 0 0
152 0 0
70 0 0
245 0 0
193 0 0
36 0 0
232 0 0
215 0 0
192 0 0
245 0 0
72 0 0
151 0 0
253 0 0
104 0 0
129 0 0
255 0 0
131 0 0
102 0 0
252 0 0
152 0 0
70 0 0
245 0 0
193 0 0
36 0 0
232 0 0
215 0 0
192 0 0
245 0 0
72 0 0
151 0 0
253 0 0
104 0 0
129 0 0
255 0 0
131 0 0
102 0 0
252 0 0
152 0 0
70 0 0
245 0 0
193 0 0
36 0 0
232 0 0
215 0 0
192 0 0
245 0 0
72 0 0
151 0 0
253 0 0
104 0 0
129 0 0
255 0 0
131 0 0
102 0 0
252 0 0
152 0 0
70 0 0
245 0 0
193 0 0
36 0 0
232 0 0
215 0 0
192 0 0
245 0 0
72 0 0
151 0 0
253 0 0
104 0 0
129 0 0
255 0 0
131 0 0
102 0 0
252 0 0
152 0 0
70 0 0
245 0 0
193 0 0
36 0 0
232 0 0
215 0 0
192 0 0
245 0 0
72 0 0
151 0 0
253 0 0
104 0 0
129 0 0
255 0 0
131 0 0
102 0 0
252 0 0
152 0 0
70 0 0
245 0 0
193 0 0
36 0 0
232 0 0
215 0 0
192 0 0
245 0 0
72 0 0
151 0 0
253 0 0
104 0 0
129 0 0
255 0 0
131 0 0
102 0 0
252 0 0
152 0 0
70 0 0
245 0 0
193 0 0
36 0 0
232 0 0
215 0 0
192 0 0
245 0 0
72 0 0
151 0 0
253 0 0
104 0 0
129 0 0
255 0 0
131 0 0
102 0 0
252 0 0
152 0 0
70 0 0
245 0 0
193 0 0
36 0 0
232 0 0
215 0 0
192 0 0
245 0 0
72 0 0
151 0 0
253 0 0
104 0 0
129 0 0
255 0 0
131 0 0
102 0 0
252 0 0
152 0 0
70 0 0
245 0 0
193 0 0
36 0 0
232 0 0
215 0 0
192 0 0
245 0 0
72 0 0
151 0 0
253 0 0
104 0 0
129 0 0
255 0 0
131 0 0
102 0 0
252 0 0
152 0 0
70 0 0
245 0 0
193 0 0
36 0 0
232 0 0
215 0 0
