P3
2 2 255
232 0 0
215 0 0
232 0 0
215 0 0
