P3
8 8 255
25 4 4
23 2 2
22 1 1
22 0 0
21 0 0
21 0 0
21 0 0
21 0 0
23 2 2
197 108 8
21 0 0
21 0 0
171 22 142
21 0 0
21 0 0
21 0 0
22 1 1
168 210 30
21 0 0
21 0 0
21 0 0
21 0 0
40 15 58
21 0 0
255 255 233
255 255 229
254 5 226
251 3 224
194 255 9
255 255 77
255 255 43
21 0 0
255 9 255
255 255 255
255 5 255
255 3 255
17 3 69
13 39 0
30 255 255
233 255 67
21 0 0
255 255 255
255 7 255
255 255 255
255 3 255
0 212 225
0 205 213
3 160 160
21 0 0
185 226 177
255 255 255
255 7 255
255 255 255
255 3 255
0 219 230
0 49 74
21 0 0
21 0 0
255 255 255
255 10 255
255 7 255
255 255 255
255 255 255
255 2 255
